HIERARCHY
ROOT hip
{
	OFFSET 0.000000 0.000000 0.000000
	CHANNELS 6 Xposition Yposition Zposition Zrotation Yrotation Xrotation 
	JOINT lhipjoint
	{
		OFFSET 0.000000 0.000000 0.000000
		CHANNELS 3 Zrotation Yrotation Xrotation
		JOINT lfemur
		{
			OFFSET 1.363060 -1.794630 0.839290
			CHANNELS 3 Zrotation Yrotation Xrotation
			JOINT ltibia
			{
				OFFSET 2.448110 -6.726130 0.000000
				CHANNELS 3 Zrotation Yrotation Xrotation
				JOINT lfoot
				{
					OFFSET 2.562200 -7.039590 0.000000
					CHANNELS 3 Zrotation Yrotation Xrotation
					JOINT ltoes
					{
						OFFSET 0.157640 -0.433110 2.322550
						CHANNELS 3 Zrotation Yrotation Xrotation
						End Site
						{
							OFFSET 0.000000 0.000000 0.000000
						}
					}
				}
			}
		}
	}
	JOINT rhipjoint
	{
		OFFSET 0.000000 0.000000 0.000000
		CHANNELS 3 Zrotation Yrotation Xrotation
		JOINT rfemur
		{
			OFFSET -1.305520 -1.794630 0.839290
			CHANNELS 3 Zrotation Yrotation Xrotation
			JOINT rtibia
			{
				OFFSET -2.542530 -6.985550 0.000000
				CHANNELS 3 Zrotation Yrotation Xrotation
				JOINT rfoot
				{
					OFFSET -2.568260 -7.056230 0.000000
					CHANNELS 3 Zrotation Yrotation Xrotation
					JOINT rtoes
					{
						OFFSET -0.164730 -0.452590 2.363150
						CHANNELS 3 Zrotation Yrotation Xrotation
						End Site
						{
							OFFSET 0.000000 0.000000 0.000000
						}
					}
				}
			}
		}
	}
	JOINT lowerback
	{
		OFFSET 0.000000 0.000000 0.000000
		CHANNELS 3 Zrotation Yrotation Xrotation
		JOINT upperback
		{
			OFFSET 0.028270 2.035590 -0.193380
			CHANNELS 3 Zrotation Yrotation Xrotation
			JOINT thorax
			{
				OFFSET 0.056720 2.048850 -0.042750
				CHANNELS 3 Zrotation Yrotation Xrotation
				JOINT lowerneck
				{
					OFFSET 0.000000 0.000000 0.000000
					CHANNELS 3 Zrotation Yrotation Xrotation
					JOINT upperneck
					{
						OFFSET -0.054170 1.746240 0.172020
						CHANNELS 3 Zrotation Yrotation Xrotation
						JOINT head
						{
							OFFSET 0.104070 1.761360 -0.123970
							CHANNELS 3 Zrotation Yrotation Xrotation
							End Site
							{
								OFFSET 0.000000 0.000000 0.000000
							}
						}
					}
				}
				JOINT lclavicle
				{
					OFFSET 0.000000 0.000000 0.000000
					CHANNELS 3 Zrotation Yrotation Xrotation
					JOINT lhumerus
					{
						OFFSET 3.362410 1.200890 -0.311210
						CHANNELS 3 Zrotation Yrotation Xrotation
						JOINT lradius
						{
							OFFSET 4.983000 -0.000000 -0.000000
							CHANNELS 3 Zrotation Yrotation Xrotation
							JOINT lwrist
							{
								OFFSET 3.483560 -0.000000 -0.000000
								CHANNELS 3 Zrotation Yrotation Xrotation
								JOINT lhand
								{
									OFFSET 0.000000 0.000000 0.000000
									CHANNELS 3 Zrotation Yrotation Xrotation
									JOINT lfingers
									{
										OFFSET 0.715260 -0.000000 -0.000000
										CHANNELS 3 Zrotation Yrotation Xrotation
										End Site
										{
											OFFSET 0.000000 0.000000 0.000000
										}
									}
								}
								JOINT lthumb
								{
									OFFSET 0.000000 0.000000 0.000000
									CHANNELS 3 Zrotation Yrotation Xrotation
									End Site
									{
										OFFSET 0.000000 0.000000 0.000000
									}
								}
							}
						}
					}
				}
				JOINT rclavicle
				{
					OFFSET 0.000000 0.000000 0.000000
					CHANNELS 3 Zrotation Yrotation Xrotation
					JOINT rhumerus
					{
						OFFSET -3.136600 1.374050 -0.404650
						CHANNELS 3 Zrotation Yrotation Xrotation
						JOINT rradius
						{
							OFFSET -5.241900 -0.000000 -0.000000
							CHANNELS 3 Zrotation Yrotation Xrotation
							JOINT rwrist
							{
								OFFSET -3.444170 -0.000000 -0.000000
								CHANNELS 3 Zrotation Yrotation Xrotation
								JOINT rhand
								{
									OFFSET 0.000000 0.000000 0.000000
									CHANNELS 3 Zrotation Yrotation Xrotation
									JOINT rfingers
									{
										OFFSET -0.622530 -0.000000 -0.000000
										CHANNELS 3 Zrotation Yrotation Xrotation
										End Site
										{
											OFFSET 0.000000 0.000000 0.000000
										}
									}
								}
								JOINT rthumb
								{
									OFFSET 0.000000 0.000000 0.000000
									CHANNELS 3 Zrotation Yrotation Xrotation
									End Site
									{
										OFFSET 0.000000 0.000000 0.000000
									}
								}
							}
						}
					}
				}
			}
		}
	}
}
MOTION
Frames: 4
Frame Time: 0.008333
0.358041 19.804911 3.439201 -178.295013 7.443153 -173.692266 7.138569 6.005118 1.498180 -22.417514 10.368648 -24.350548 0.442938 8.459241 28.959293 5.785801 -14.341241 18.927232 0.007300 0.549900 1.511000 -9.099661 -6.566391 1.421413 25.815983 3.841238 -23.429758 -2.220378 -10.107632 33.276984 -3.890315 13.109009 9.435931 -0.059100 1.568100 -4.313500 4.381580 2.033095 -9.076866 0.844714 2.231275 0.101537 0.081515 1.493900 14.893294 -2.506062 -0.472143 -7.017876 -0.201644 1.626928 18.004853 -2.276700 1.681900 6.036100 5.890918 1.988663 3.630518 -82.200190 6.412198 30.641915 3.768975 -25.900798 -1.332694 -0.776049 0.041674 35.142742 3.511807 -5.203283 -0.348600 -7.125000 0.000000 0.000000 -16.712500 25.138000 8.373600 -2.307708 -0.429297 3.982398 76.306023 6.452550 12.916481 -15.877672 36.118658 -5.304356 -0.554566 -1.646581 14.363965 -14.444396 12.714507 -3.661700 7.125000 0.000000 0.000000 8.949200 -15.150800 6.378700 
0.367790 19.801114 3.430786 -178.362008 7.475618 -173.805275 7.136823 6.017658 1.499169 -22.413264 10.248959 -24.128884 0.455597 8.448504 28.952131 5.737451 -14.109739 18.759389 0.005200 0.467600 1.284800 -9.096777 -6.569398 1.420535 25.874195 3.794773 -23.400573 -2.234083 -10.129991 33.401131 -3.995325 13.846835 9.748782 -0.061200 1.595900 -4.390300 4.394986 2.031337 -9.040906 0.843048 2.233035 0.105698 0.105266 1.499282 14.892180 -2.553975 -0.472509 -6.984634 -0.210554 1.644510 18.051783 -2.264900 1.693500 6.047400 5.876317 1.985527 3.632615 -82.289552 6.336178 30.602561 3.717373 -25.826424 -1.315034 -0.751564 0.020999 35.088563 4.167291 -5.309737 -0.409600 -7.125000 0.000000 0.000000 -16.246200 25.038700 8.159800 -2.251024 -0.420756 3.997384 76.156286 6.259906 13.434173 -16.955139 37.049008 -5.684292 -0.558378 -1.695735 13.917120 -14.575470 12.812834 -3.732400 7.125000 0.000000 0.000000 8.863800 -14.989100 6.347300 
0.377333 19.795675 3.423295 -178.452332 7.483816 -173.911156 7.135688 6.026434 1.499920 -22.425305 10.061555 -23.911099 0.467596 8.444385 28.958356 5.682723 -13.854511 18.617318 0.005700 0.485700 1.334500 -9.094604 -6.571051 1.418405 25.896322 3.743102 -23.373691 -2.243161 -10.144043 33.493594 -4.090605 14.564829 10.032823 -0.073000 1.743500 -4.797300 4.400881 2.017940 -9.017412 0.842654 2.219420 0.110568 0.138054 1.495040 14.915432 -2.595919 -0.477963 -6.998549 -0.238378 1.668007 18.116270 -2.268200 1.708800 6.087200 5.861205 1.989867 3.631414 -82.397679 6.239206 30.523201 3.675535 -25.768152 -1.298809 -0.720846 -0.005546 35.087569 5.010518 -5.467846 -0.493500 -7.125000 0.000000 0.000000 -15.643700 24.889500 7.890500 -2.181279 -0.415472 4.008580 75.948538 6.071366 14.013435 -18.121925 38.028952 -6.110346 -0.553265 -1.752493 13.350980 -14.711366 12.758199 -3.769500 7.125000 0.000000 0.000000 8.770700 -14.976700 6.281400 
0.386774 19.790339 3.416112 -178.539296 7.499338 -174.007126 7.135625 6.036115 1.499103 -22.458204 9.994025 -23.758235 0.483166 8.445840 28.981706 5.647467 -13.695654 18.448838 0.002900 0.345300 0.948900 -9.095160 -6.569947 1.422333 25.895493 3.799743 -23.299859 -2.244608 -10.146302 33.556922 -4.175087 15.290477 10.426613 -0.073400 1.748100 -4.809900 4.441321 2.011195 -9.001415 0.841147 2.208187 0.112582 0.142295 1.497153 14.903490 -2.622325 -0.473352 -6.938266 -0.286068 1.704514 18.163280 -2.284100 1.734000 6.090000 5.847081 1.987743 3.635486 -82.498353 6.176273 30.381456 3.639597 -25.711746 -1.281364 -0.686770 -0.044978 35.160145 6.048102 -5.813757 -0.619200 -7.125000 0.000000 0.000000 -14.887800 24.563300 7.599600 -2.113719 -0.400210 4.027257 75.735792 5.822294 14.630692 -19.382412 39.069476 -6.591089 -0.543215 -1.818153 12.702452 -14.891656 12.602180 -3.795800 7.125000 0.000000 0.000000 8.644900 -15.055300 6.174500 
